<svg xmlns="http://www.w3.org/2000/svg" version="1.1" xmlns:xlink="http://www.w3.org/1999/xlink" xmlns:svgjs="http://svgjs.dev/svgjs" width="1500" height="1500" viewBox="0 0 1500 1500"><rect width="1500" height="1500" fill="#000000"></rect><g transform="matrix(0.6666666666666666,0,0,0.6666666666666666,249.78425655976667,249.78425655976673)"><svg viewBox="0 0 343 343" data-background-color="#f8f8f8" preserveAspectRatio="xMidYMid meet" height="1500" width="1500" xmlns="http://www.w3.org/2000/svg" xmlns:xlink="http://www.w3.org/1999/xlink"><g id="tight-bounds" transform="matrix(1,0,0,1,0.0740000000000407,0.07400000000001228)"><svg viewBox="0 0 342.85155851775386 342.85155851775386" height="342.85155851775386" width="342.85155851775386"><g><svg></svg></g><g><svg viewBox="0 0 342.85155851775386 342.85155851775386" height="342.85155851775386" width="342.85155851775386"><g><path d="M0 171.426c0-94.676 76.75-171.426 171.426-171.426 94.676 0 171.426 76.75 171.426 171.426 0 94.676-76.75 171.426-171.426 171.426-94.676 0-171.426-76.75-171.426-171.426zM171.426 338.971c92.532 0 167.545-75.012 167.545-167.545 0-92.532-75.012-167.545-167.545-167.545-92.532 0-167.545 75.012-167.545 167.545 0 92.532 75.012 167.545 167.545 167.545z" data-fill-palette-color="tertiary" fill="#ffffff" stroke="transparent"></path><ellipse rx="164.56874808852186" ry="164.56874808852186" cx="171.42577925887693" cy="171.42577925887693" fill="#ffffff" stroke="transparent" stroke-width="0" fill-opacity="1" data-fill-palette-color="tertiary"></ellipse></g><g transform="matrix(1,0,0,1,64.84655864529837,115.09169688425135)"><svg viewBox="0 0 213.1584412271571 112.66816474925118" height="112.66816474925118" width="213.1584412271571"><g><svg viewBox="0 0 213.1584412271571 112.66816474925118" height="112.66816474925118" width="213.1584412271571"><g><svg viewBox="0 0 213.1584412271571 112.66816474925118" height="112.66816474925118" width="213.1584412271571"><g transform="matrix(1,0,0,1,0,69.63344583763396)"><svg viewBox="0 0 213.1584412271571 43.03471891161722" height="43.03471891161722" width="213.1584412271571"><g id="textblocktransform"><svg viewBox="0 0 213.1584412271571 43.03471891161722" height="43.03471891161722" width="213.1584412271571" id="textblock"><g><svg viewBox="0 0 213.1584412271571 43.03471891161722" height="43.03471891161722" width="213.1584412271571"><g transform="matrix(1,0,0,1,0,0)"><svg width="213.1584412271571" viewBox="3.1 -37.4 237.98000000000002 48.05" height="43.03471891161722" data-palette-color="#f8f8f8"><path d="M32.95-34.45L35.8 0 31.2 0 30-15.55Q29.25-24.7 29.15-29.6L29.15-29.6 21.7-3.9 17.25-3.9 9.4-29.65Q9.4-23.4 8.75-15.2L8.75-15.2 7.6 0 3.1 0 5.95-34.45 12.35-34.45 19.6-9.4 26.5-34.45 32.95-34.45ZM61.4-6.15Q61.4-4.55 61.95-3.78 62.5-3 63.6-2.6L63.6-2.6 62.55 0.6Q60.5 0.35 59.25-0.55 58-1.45 57.4-3.35L57.4-3.35Q54.75 0.6 49.55 0.6L49.55 0.6Q45.65 0.6 43.4-1.6 41.15-3.8 41.15-7.35L41.15-7.35Q41.15-11.55 44.17-13.8 47.2-16.05 52.75-16.05L52.75-16.05 56.8-16.05 56.8-18Q56.8-20.8 55.45-22 54.1-23.2 51.3-23.2L51.3-23.2Q48.4-23.2 44.2-21.8L44.2-21.8 43.05-25.15Q47.95-26.95 52.15-26.95L52.15-26.95Q56.8-26.95 59.1-24.68 61.4-22.4 61.4-18.2L61.4-18.2 61.4-6.15ZM50.6-2.85Q54.55-2.85 56.8-6.95L56.8-6.95 56.8-13 53.35-13Q46.05-13 46.05-7.6L46.05-7.6Q46.05-5.25 47.2-4.05 48.35-2.85 50.6-2.85L50.6-2.85ZM82.4-4.25L84.15-1.2Q81.55 0.6 78.25 0.6L78.25 0.6Q74.9 0.6 73.02-1.33 71.15-3.25 71.15-6.9L71.15-6.9 71.15-22.8 66.55-22.8 66.55-26.35 71.15-26.35 71.15-32.3 75.75-32.85 75.75-26.35 82-26.35 81.5-22.8 75.75-22.8 75.75-7.1Q75.75-5.05 76.47-4.13 77.2-3.2 78.9-3.2L78.9-3.2Q80.45-3.2 82.4-4.25L82.4-4.25ZM101.29-26.95Q104.89-26.95 106.92-24.8 108.94-22.65 108.94-18.9L108.94-18.9 108.94 0 104.34 0 104.34-18.25Q104.34-21.05 103.27-22.2 102.19-23.35 100.14-23.35L100.14-23.35Q98.09-23.35 96.49-22.15 94.89-20.95 93.49-18.75L93.49-18.75 93.49 0 88.89 0 88.89-36.9 93.49-37.4 93.49-22.7Q96.59-26.95 101.29-26.95L101.29-26.95ZM134.64-26.35L138.59-26.35 138.59 10.65 133.99 10.1 133.99-3.5Q132.69-1.55 130.77-0.48 128.84 0.6 126.49 0.6L126.49 0.6Q121.79 0.6 119.17-3.1 116.54-6.8 116.54-13.05L116.54-13.05Q116.54-17.1 117.79-20.25 119.04-23.4 121.39-25.18 123.74-26.95 126.89-26.95L126.89-26.95Q131.09-26.95 134.29-23.4L134.29-23.4 134.64-26.35ZM127.49-3.05Q129.59-3.05 131.09-4.03 132.59-5 133.99-6.95L133.99-6.95 133.99-19.85Q132.69-21.55 131.22-22.43 129.74-23.3 127.89-23.3L127.89-23.3Q124.84-23.3 123.17-20.75 121.49-18.2 121.49-13.15L121.49-13.15Q121.49-8.05 123.04-5.55 124.59-3.05 127.49-3.05L127.49-3.05ZM167.69-26.35L167.69 0 163.74 0 163.39-4.1Q161.89-1.65 159.94-0.53 157.99 0.6 155.19 0.6L155.19 0.6Q151.74 0.6 149.79-1.5 147.84-3.6 147.84-7.45L147.84-7.45 147.84-26.35 152.44-26.35 152.44-7.95Q152.44-5.25 153.39-4.13 154.34-3 156.49-3L156.49-3Q160.34-3 163.09-7.55L163.09-7.55 163.09-26.35 167.69-26.35ZM197.09-13.95Q197.09-12.8 196.99-11.6L196.99-11.6 180.19-11.6Q180.49-7.25 182.38-5.2 184.28-3.15 187.28-3.15L187.28-3.15Q189.19-3.15 190.78-3.7 192.38-4.25 194.13-5.45L194.13-5.45 196.13-2.7Q191.94 0.6 186.94 0.6L186.94 0.6Q181.44 0.6 178.36-3 175.28-6.6 175.28-12.9L175.28-12.9Q175.28-17 176.61-20.18 177.94-23.35 180.41-25.15 182.88-26.95 186.24-26.95L186.24-26.95Q191.49-26.95 194.28-23.5 197.09-20.05 197.09-13.95L197.09-13.95ZM192.53-15L192.53-15.3Q192.53-19.2 190.99-21.25 189.44-23.3 186.34-23.3L186.34-23.3Q180.69-23.3 180.19-15L180.19-15 192.53-15ZM211.58-26.95Q214.28-26.95 216.43-26.2 218.58-25.45 220.53-23.95L220.53-23.95 218.58-21.05Q216.78-22.2 215.16-22.75 213.53-23.3 211.73-23.3L211.73-23.3Q209.48-23.3 208.18-22.38 206.88-21.45 206.88-19.85L206.88-19.85Q206.88-18.25 208.11-17.35 209.33-16.45 212.53-15.6L212.53-15.6Q216.93-14.5 219.11-12.6 221.28-10.7 221.28-7.4L221.28-7.4Q221.28-3.5 218.26-1.45 215.23 0.6 210.88 0.6L210.88 0.6Q204.88 0.6 200.93-2.85L200.93-2.85 203.38-5.65Q206.73-3.1 210.78-3.1L210.78-3.1Q213.38-3.1 214.91-4.17 216.43-5.25 216.43-7.1L216.43-7.1Q216.43-8.45 215.88-9.28 215.33-10.1 213.98-10.73 212.63-11.35 210.03-12.05L210.03-12.05Q205.83-13.15 203.96-15 202.08-16.85 202.08-19.7L202.08-19.7Q202.08-21.75 203.31-23.43 204.53-25.1 206.71-26.03 208.88-26.95 211.58-26.95L211.58-26.95ZM239.33-4.25L241.08-1.2Q238.48 0.6 235.18 0.6L235.18 0.6Q231.83 0.6 229.96-1.33 228.08-3.25 228.08-6.9L228.08-6.9 228.08-22.8 223.48-22.8 223.48-26.35 228.08-26.35 228.08-32.3 232.68-32.85 232.68-26.35 238.93-26.35 238.43-22.8 232.68-22.8 232.68-7.1Q232.68-5.05 233.41-4.13 234.13-3.2 235.83-3.2L235.83-3.2Q237.38-3.2 239.33-4.25L239.33-4.25Z" opacity="1" transform="matrix(1,0,0,1,0,0)" fill="#000000" class="wordmark-text-0" data-fill-palette-color="quaternary" id="text-0"></path></svg></g></svg></g></svg></g></svg></g><g transform="matrix(1,0,0,1,79.94900084341906,0)"><svg viewBox="0 0 53.26043954031899 59.473981535855" height="59.473981535855" width="53.26043954031899"><g><svg xmlns="http://www.w3.org/2000/svg" xmlns:xlink="http://www.w3.org/1999/xlink" version="1.1" x="0" y="0" viewBox="9.700685695556787 5 80.59725336765783 90" enable-background="new 0 0 100 100" xml:space="preserve" height="59.473981535855" width="53.26043954031899" class="icon-icon-0" data-fill-palette-color="quaternary" id="icon-0"><path d="M28.71 33.027h14.018V19.01H28.71V33.027zM30.968 24.789h3.521v-3.521h2.463v3.521h3.515v2.461h-3.515v3.518h-2.463V27.25h-3.521V24.789z" fill="#000000" data-fill-palette-color="quaternary"></path><path d="M28.71 53.99h14.018V39.973H28.71V53.99zM30.967 45.75h9.5v2.463h-9.5V45.75z" fill="#000000" data-fill-palette-color="quaternary"></path><path d="M49.673 53.99h14.017V39.973H49.673V53.99zM52.383 43.915h8.6v2.15h-8.6V43.915zM52.383 47.892h8.6v2.15h-8.6V47.892z" fill="#000000" data-fill-palette-color="quaternary"></path><path d="M49.673 33.027h14.017V19.01H49.673V33.027zM53.938 21.528l2.748 2.732 2.733-2.733 1.759 1.754-2.736 2.735 2.735 2.746-1.758 1.765-2.733-2.753-2.748 2.751-1.764-1.763 2.752-2.746-2.753-2.735L53.938 21.528z" fill="#000000" data-fill-palette-color="quaternary"></path><path d="M89.867 52.643c-2.574-4.778-8.608-8.085-8.608-13.921 0-3.043 2.062-4.018 2.062-7.471 0-3.447-0.313-7.135-3.063-11.068C75.952 14.016 66.843 5 46.639 5 22.345 5 2.034 23.17 12.535 51.445c3.586 10.281 12.887 14.521 12.887 20.584 0 2.639-0.701 7.324-2.586 11.785-2.45 5.791-3.415 7.641-3.415 7.641C18.403 93.404 19.37 95 21.57 95h39.25 0.482c1.532-1.912 0.238-8.15 0.238-8.15-0.559-2.692 1.225-4.668 3.959-4.393 0 0 1.777 0.182 6.896 0.787 3.277 0.381 6.484 0.41 8.563-0.742 5.328-2.936 0.095-8.182 0.095-10.008 0-1.832 3.771-1.752 3.771-3.773 0-2.018-3.547-1.104-3.59-2.389-0.045-1.287 4.877-0.281 4.877-2.303 0-2.021-2.023-2.451-2.023-4.705 0-1.742 4.844-2.08 5.95-4.301C90.371 54.367 90.453 53.73 89.867 52.643zM44.722 54.482c0 0.822-0.664 1.496-1.494 1.496H28.217c-0.821 0-1.495-0.674-1.495-1.496V39.473c0-0.831 0.674-1.495 1.495-1.495h15.011c0.83 0 1.494 0.664 1.494 1.495V54.482zM44.722 33.528c0 0.829-0.664 1.493-1.494 1.493H28.217c-0.821 0-1.495-0.664-1.495-1.493V18.517c0-0.821 0.674-1.495 1.495-1.495h15.011c0.83 0 1.494 0.674 1.494 1.495V33.528zM65.68 54.482c0 0.822-0.675 1.496-1.496 1.496H49.173c-0.83 0-1.494-0.674-1.494-1.496V39.473c0-0.831 0.664-1.495 1.494-1.495h15.011c0.821 0 1.496 0.664 1.496 1.495V54.482zM65.68 33.528c0 0.829-0.675 1.493-1.496 1.493H49.173c-0.83 0-1.494-0.664-1.494-1.493V18.517c0-0.821 0.664-1.495 1.494-1.495h15.011c0.821 0 1.496 0.674 1.496 1.495V33.528z" fill="#000000" data-fill-palette-color="quaternary"></path></svg></g></svg></g><g></g></svg></g></svg></g></svg></g></svg></g><defs></defs></svg><rect width="342.85155851775386" height="342.85155851775386" fill="none" stroke="none" visibility="hidden"></rect></g></svg></g></svg>